{"glyphs":{"0":{"ha":1164,"x_min":142,"x_max":1022,"o":"m 582 -35 l 582 -35 q 268 92 394 -35 q 142 406 142 218 l 142 406 q 269 719 142 592 q 582 846 396 846 l 582 846 q 896 719 769 846 q 1022 406 1022 593 l 1022 406 q 896 92 1022 218 q 582 -35 769 -35 z m 582 733 l 582 733 q 349 639 443 733 q 256 406 256 544 l 256 406 q 315 217 256 300 l 315 217 l 771 674 q 582 733 686 733 z m 850 593 l 850 593 l 393 138 q 582 78 478 78 l 582 78 q 816 172 722 78 q 910 406 910 265 l 910 406 q 850 593 910 511 z "},"1":{"ha":619,"x_min":172,"x_max":446,"o":"m 446 -17 l 172 -17 l 193 29 q 240 40 229 32 q 250 83 250 49 l 250 83 l 250 728 q 240 771 250 763 q 193 782 231 779 l 193 782 l 172 828 l 446 828 l 428 783 q 382 772 392 779 l 382 772 q 369 728 369 761 l 369 728 l 369 83 q 379 40 369 47 q 428 29 389 32 l 428 29 l 446 -17 z "},"2":{"ha":836,"x_min":78,"x_max":706,"o":"m 706 178 l 701 -17 l 604 -14 l 78 -14 l 499 421 q 576 569 576 501 l 576 569 q 531 685 576 638 q 418 732 486 732 l 418 732 q 303 685 350 732 q 256 569 256 638 l 256 569 q 308 550 256 550 l 308 550 l 328 503 l 146 506 l 142 568 q 219 764 135 682 q 418 846 304 846 l 418 846 q 615 767 536 846 q 694 569 694 688 l 694 569 q 579 339 694 458 l 579 339 l 349 100 l 604 100 q 648 110 640 100 q 658 158 656 119 l 658 158 l 706 178 z "},"3":{"ha":836,"x_min":135,"x_max":742,"o":"m 742 825 l 500 506 q 640 405 586 478 q 694 242 694 332 l 694 242 q 615 44 694 124 q 418 -35 536 -35 l 418 -35 q 219 47 304 -35 q 142 243 135 129 l 142 243 l 146 306 l 328 308 l 308 261 q 256 242 256 261 l 256 242 q 303 126 256 174 q 418 79 350 79 l 418 79 q 533 126 486 79 q 579 242 579 174 l 579 242 q 527 361 579 317 q 399 406 475 406 l 399 406 q 260 378 349 406 l 260 378 l 511 711 l 267 711 q 223 701 231 711 q 213 653 215 692 l 213 653 l 167 632 l 169 828 l 267 825 l 742 825 z "},"4":{"ha":839,"x_min":58,"x_max":708,"o":"m 708 110 l 661 129 q 653 176 658 167 l 653 176 q 608 188 643 188 l 608 188 l 553 188 l 553 83 q 563 40 553 47 q 611 29 572 32 l 611 29 l 629 -17 l 360 -17 l 381 29 q 427 41 415 32 q 439 83 439 50 l 439 83 l 439 188 l 58 188 l 553 896 l 553 301 l 608 301 q 653 313 643 301 l 653 313 q 661 360 658 322 l 661 360 l 708 379 l 708 110 z m 439 301 l 439 543 l 269 301 l 439 301 z "},"5":{"ha":836,"x_min":135,"x_max":694,"o":"m 418 -35 l 418 -35 q 219 47 304 -35 q 142 243 135 129 l 142 243 l 146 306 l 328 308 l 308 261 q 256 242 256 261 l 256 242 q 303 126 256 174 q 418 79 350 79 l 418 79 q 533 126 486 79 q 579 242 579 174 l 579 242 q 532 356 579 308 q 418 403 485 403 l 418 403 q 276 358 324 403 l 276 358 l 172 381 l 235 825 l 649 828 l 651 632 l 607 653 q 594 701 603 690 q 551 711 586 711 l 551 711 l 333 711 l 303 492 q 418 517 357 517 l 418 517 q 615 438 535 517 q 694 242 694 358 l 694 242 q 615 44 694 124 q 418 -35 536 -35 z "},"6":{"ha":836,"x_min":142,"x_max":694,"o":"m 418 -35 l 418 -35 q 221 44 300 -35 q 142 242 142 124 l 142 242 q 165 351 142 296 l 165 351 q 219 450 179 383 l 219 450 l 450 828 l 644 832 l 625 786 q 568 776 600 783 l 568 776 q 522 724 549 767 l 522 724 l 393 515 q 426 517 411 517 l 426 517 q 615 435 536 517 q 694 242 694 353 l 694 242 q 615 44 694 124 q 418 -35 536 -35 z m 418 403 l 418 403 q 303 356 350 403 q 256 242 256 310 l 256 242 q 303 126 256 174 q 418 79 350 79 l 418 79 q 533 126 486 79 q 579 242 579 174 l 579 242 q 532 356 579 308 q 418 403 485 403 z "},"7":{"ha":881,"x_min":136,"x_max":739,"o":"m 739 825 l 399 -18 l 204 -17 l 222 28 q 281 42 265 33 l 281 42 q 318 89 304 54 l 318 89 l 568 711 l 236 711 q 194 701 201 711 q 183 653 186 690 l 183 653 l 136 633 l 139 828 l 236 825 l 739 825 z "},"8":{"ha":849,"x_min":149,"x_max":700,"o":"m 425 -35 l 425 -35 q 228 44 307 -35 q 149 242 149 124 l 149 242 q 268 468 149 385 l 268 468 q 203 625 203 536 l 203 625 q 268 781 203 717 q 425 846 333 846 l 425 846 q 582 782 518 846 q 646 625 646 718 l 646 625 q 581 468 646 532 l 581 468 q 700 242 700 386 l 700 242 q 621 45 700 125 q 425 -35 542 -35 z m 425 733 l 425 733 q 349 701 381 733 q 317 625 317 669 l 317 625 q 348 548 317 579 q 425 517 379 517 l 425 517 q 502 548 471 517 q 533 625 533 579 l 533 625 q 501 701 533 669 q 425 733 469 733 z m 425 403 l 425 403 q 310 356 357 403 q 263 242 263 310 l 263 242 q 310 126 263 174 q 425 79 357 79 l 425 79 q 540 126 493 79 q 586 242 586 174 l 586 242 q 539 356 586 308 q 425 403 492 403 z "},"9":{"ha":836,"x_min":142,"x_max":694,"o":"m 615 361 l 615 361 l 386 -17 l 193 -21 l 210 25 q 274 40 257 31 q 314 88 290 50 l 314 88 l 443 296 q 410 294 425 294 l 410 294 q 221 376 300 294 q 142 569 142 458 l 142 569 q 221 767 142 688 q 418 846 300 846 l 418 846 q 615 767 536 846 q 694 569 694 688 l 694 569 q 671 460 694 511 l 671 460 q 615 361 658 432 z m 418 732 l 418 732 q 303 685 350 732 q 256 569 256 638 l 256 569 q 303 455 256 501 q 418 408 350 408 l 418 408 q 532 456 485 408 q 579 569 579 503 l 579 569 q 533 685 579 638 q 418 732 486 732 z "}," ":{"ha":567,"x_min":0,"x_max":0,"o":""},"!":{"ha":567,"x_min":136,"x_max":375,"o":"m 340 790 l 292 249 l 256 214 l 219 249 l 171 790 l 256 875 l 340 790 z m 375 63 l 256 -57 l 136 63 l 256 182 l 375 63 z "},"&":{"ha":1033,"x_min":149,"x_max":1036,"o":"m 1036 -17 l 854 -18 l 722 139 q 633 56 650 69 l 633 56 q 535 -12 574 4 l 535 -12 q 425 -35 482 -35 l 425 -35 q 228 44 307 -35 q 149 242 149 124 l 149 242 q 268 468 149 385 l 268 468 q 203 625 203 536 l 203 625 q 268 781 203 717 q 425 846 333 846 l 425 846 q 582 782 518 846 q 646 625 646 718 l 646 625 q 581 468 646 532 l 581 468 q 675 372 608 451 l 675 372 l 732 304 q 786 365 786 354 l 786 365 q 764 408 786 378 l 764 408 l 788 451 l 964 250 l 917 236 q 872 264 883 264 l 872 264 q 806 215 860 264 l 806 215 l 908 92 q 957 45 936 58 q 1018 28 978 32 l 1018 28 l 1036 -17 z m 425 733 l 425 733 q 349 701 381 733 q 317 625 317 669 l 317 625 q 348 548 317 579 q 425 517 379 517 l 425 517 q 502 548 471 517 q 533 625 533 579 l 533 625 q 501 701 533 669 q 425 733 469 733 z m 647 226 l 531 360 q 425 403 493 403 l 425 403 q 310 356 357 403 q 263 242 263 310 l 263 242 q 310 126 263 174 q 425 79 357 79 l 425 79 q 544 131 489 79 l 544 131 l 647 226 z "},"'":{"ha":444,"x_min":117,"x_max":328,"o":"m 328 769 l 222 507 l 117 769 l 222 875 l 328 769 z "},"(":{"ha":667,"x_min":253,"x_max":540,"o":"m 540 -140 l 490 -203 l 253 -24 l 253 822 l 490 1001 l 540 940 l 358 769 l 358 31 l 540 -140 z "},")":{"ha":667,"x_min":126,"x_max":414,"o":"m 414 -24 l 176 -203 l 126 -140 l 308 31 l 308 769 l 126 940 l 176 1001 l 414 822 l 414 -24 z "},",":{"ha":444,"x_min":89,"x_max":342,"o":"m 342 63 l 147 -132 l 89 -74 l 164 1 l 103 63 l 222 182 l 342 63 z "},"-":{"ha":763,"x_min":219,"x_max":543,"o":"m 543 290 l 496 310 q 485 357 493 347 q 442 367 478 367 l 442 367 l 319 367 q 277 358 285 367 q 267 310 269 349 l 267 310 l 219 290 l 219 557 l 267 540 q 275 492 267 503 q 319 482 283 482 l 319 482 l 442 482 q 487 492 478 482 q 496 540 496 503 l 496 540 l 543 557 l 543 290 z "},".":{"ha":444,"x_min":103,"x_max":342,"o":"m 342 63 l 222 -57 l 103 63 l 222 182 l 342 63 z "},":":{"ha":444,"x_min":103,"x_max":342,"o":"m 342 485 l 222 365 l 103 485 l 222 604 l 342 485 z m 342 63 l 222 -57 l 103 63 l 222 182 l 342 63 z "},";":{"ha":444,"x_min":89,"x_max":342,"o":"m 342 485 l 222 365 l 103 485 l 222 604 l 342 485 z m 342 63 l 147 -132 l 89 -74 l 164 1 l 103 63 l 222 182 l 342 63 z "},"?":{"ha":889,"x_min":135,"x_max":694,"o":"m 578 342 l 578 342 l 435 229 l 435 197 l 375 136 l 471 40 l 374 -57 l 276 40 l 372 136 l 311 197 l 311 264 l 499 426 q 576 569 576 494 l 576 569 q 531 685 576 638 q 418 732 486 732 q 303 685 350 732 q 256 569 256 638 l 256 569 q 308 550 256 550 l 308 550 l 325 508 l 149 449 l 142 568 q 222 765 135 676 l 222 765 q 418 846 303 846 l 418 846 q 615 767 536 846 q 694 569 694 688 l 694 569 q 578 342 694 433 z "},"A":{"ha":1042,"x_min":32,"x_max":1007,"o":"m 1007 18 l 764 -96 l 761 -44 q 801 -7 801 -22 l 801 -7 q 790 29 801 8 l 790 29 l 714 176 l 278 93 q 238 -8 238 4 l 238 -8 q 278 -44 238 -21 l 278 -44 l 275 -96 l 32 18 l 69 51 q 111 40 104 40 l 111 40 q 144 76 128 40 l 144 76 l 519 889 l 894 76 q 928 40 911 40 l 928 40 q 971 51 936 42 l 971 51 l 1007 18 z m 679 271 l 519 638 l 325 199 l 679 271 z "},"B":{"ha":811,"x_min":132,"x_max":689,"o":"m 424 -14 l 424 -14 l 231 -14 l 132 -18 l 150 28 q 197 41 186 32 q 208 83 208 50 l 208 83 l 208 728 q 199 772 208 764 q 150 782 189 779 l 150 782 l 132 829 l 231 825 l 308 825 q 443 822 418 825 l 443 822 q 584 761 531 813 q 638 624 638 710 l 638 624 q 568 468 638 524 l 568 468 q 689 247 689 397 l 689 247 q 613 60 689 133 q 424 -14 538 -14 z m 415 722 l 415 722 l 322 722 l 322 503 l 415 503 q 492 534 463 503 q 522 613 522 565 l 522 613 q 492 691 522 660 q 415 722 463 722 z m 419 399 l 419 399 l 322 399 l 322 96 l 419 96 q 528 139 485 96 q 572 247 572 182 l 572 247 q 528 356 572 313 q 419 399 485 399 z "},"C":{"ha":961,"x_min":142,"x_max":838,"o":"m 838 608 l 789 608 q 710 704 781 671 l 710 704 q 582 731 654 731 l 582 731 q 350 638 443 731 q 257 406 257 544 l 257 406 q 350 174 257 267 q 582 81 443 81 l 582 81 q 713 107 660 81 l 713 107 q 792 208 781 140 l 792 208 l 833 208 l 833 44 q 582 -35 717 -35 l 582 -35 q 268 92 394 -35 q 142 406 142 218 l 142 406 q 269 719 142 592 q 582 846 396 846 l 582 846 q 833 767 718 846 l 833 767 l 838 608 z "},"D":{"ha":1036,"x_min":150,"x_max":894,"o":"m 464 -15 l 464 -15 l 179 -15 l 150 28 q 197 41 186 32 q 208 83 208 50 l 208 83 l 208 728 q 199 772 208 764 q 150 782 189 779 l 150 782 l 182 825 l 314 825 q 554 818 511 825 l 554 818 q 768 707 672 799 l 768 707 q 894 408 894 586 l 894 408 q 771 105 894 225 q 464 -15 647 -15 z m 468 719 l 468 719 l 325 719 l 325 92 l 468 92 q 690 181 601 92 q 779 404 779 271 l 779 404 q 690 628 779 538 q 468 719 601 719 z "},"E":{"ha":919,"x_min":188,"x_max":721,"o":"m 721 -89 l 675 -72 q 663 -24 671 -35 q 619 -14 654 -14 l 619 -14 l 356 -14 l 258 -111 l 258 372 q 243 367 247 371 l 243 367 q 232 315 238 358 l 232 315 l 188 297 l 188 567 l 232 546 q 246 494 235 522 l 246 494 q 258 490 250 492 l 258 490 l 258 825 l 619 825 q 664 838 654 825 l 664 838 q 675 883 671 846 l 675 883 l 721 900 l 721 633 l 674 653 q 663 701 671 690 q 619 711 654 711 l 619 711 l 372 711 l 372 489 l 614 489 q 658 500 649 489 l 658 500 q 667 546 664 507 l 667 546 l 714 565 l 714 299 l 667 315 q 658 363 667 353 q 614 374 650 374 l 614 374 l 372 374 l 372 100 l 619 100 q 664 113 654 100 l 664 113 q 674 158 671 121 l 674 158 l 721 178 l 721 -89 z "},"F":{"ha":831,"x_min":188,"x_max":721,"o":"m 721 633 l 674 653 q 663 701 671 690 q 619 711 654 711 l 619 711 l 372 711 l 372 489 l 614 489 q 658 500 649 489 l 658 500 q 667 546 664 507 l 667 546 l 714 565 l 714 299 l 667 315 q 658 363 667 353 q 614 374 650 374 l 614 374 l 372 374 l 372 3 l 258 -111 l 258 372 q 243 367 247 371 l 243 367 q 232 315 238 358 l 232 315 l 188 297 l 188 567 l 232 546 q 246 494 235 522 l 246 494 q 258 490 250 492 l 258 490 l 258 825 l 619 825 q 664 838 654 825 l 664 838 q 675 883 671 846 l 675 883 l 721 900 l 721 633 z "},"G":{"ha":1000,"x_min":142,"x_max":849,"o":"m 582 -35 l 582 -35 q 268 92 394 -35 q 142 406 142 218 l 142 406 q 269 719 142 592 q 582 846 396 846 l 582 846 q 833 767 718 846 l 833 767 l 838 608 l 789 608 q 710 704 781 671 l 710 704 q 582 731 654 731 l 582 731 q 350 638 443 731 q 257 406 257 544 l 257 406 q 350 174 257 267 q 582 81 443 81 l 582 81 q 735 122 658 81 l 735 122 l 735 342 l 672 342 q 628 332 636 342 q 618 283 621 322 l 618 283 l 572 265 l 572 454 l 849 454 l 849 57 q 751 1 793 19 l 751 1 q 582 -35 672 -35 z "},"H":{"ha":964,"x_min":132,"x_max":835,"o":"m 835 -17 l 565 -17 l 583 28 q 631 41 619 32 q 642 83 642 50 l 642 83 l 642 368 l 322 368 l 322 83 q 332 40 322 47 q 381 29 342 32 l 381 29 l 401 -17 l 132 -17 l 150 28 q 197 41 186 32 q 208 83 208 50 l 208 83 l 208 728 q 199 772 208 764 q 150 782 189 779 l 150 782 l 132 828 l 401 828 l 381 782 q 334 770 346 779 q 322 728 322 761 l 322 728 l 322 472 l 642 472 l 642 728 q 632 772 642 764 q 583 782 622 779 l 583 782 l 565 828 l 835 828 l 814 782 q 767 770 779 779 q 756 728 756 761 l 756 728 l 756 83 q 765 40 756 47 q 814 29 775 32 l 814 29 l 835 -17 z "},"I":{"ha":575,"x_min":150,"x_max":424,"o":"m 424 -17 l 150 -17 l 171 29 q 217 40 207 32 q 228 83 228 49 l 228 83 l 228 728 q 218 771 228 763 q 171 782 208 779 l 171 782 l 150 828 l 424 828 l 406 783 q 360 772 369 779 l 360 772 q 347 728 347 761 l 347 728 l 347 83 q 357 40 347 47 q 406 29 367 32 l 406 29 l 424 -17 z "},"J":{"ha":575,"x_min":154,"x_max":424,"o":"m 424 828 l 403 782 q 356 770 368 779 q 344 728 344 761 l 344 728 l 344 -212 l 231 -403 l 231 728 q 221 772 231 764 q 172 782 211 779 l 172 782 l 154 828 l 424 828 z "},"K":{"ha":899,"x_min":132,"x_max":850,"o":"m 850 -17 l 668 -18 l 322 326 l 322 83 q 332 40 322 47 q 381 29 342 32 l 381 29 l 401 -17 l 132 -17 l 150 28 q 197 41 186 32 q 208 83 208 50 l 208 83 l 208 728 q 199 772 208 764 q 150 782 189 779 l 150 782 l 132 828 l 401 828 l 381 782 q 334 770 346 779 q 322 728 322 761 l 322 728 l 322 567 l 507 733 q 535 769 535 758 l 535 769 q 508 813 535 781 l 508 813 l 532 858 l 706 663 l 658 649 q 615 676 625 676 l 615 676 q 585 658 608 676 l 585 658 q 579 654 582 657 l 579 654 l 358 454 l 718 93 q 767 47 757 53 l 767 47 q 829 28 789 32 l 829 28 l 850 -17 z "},"L":{"ha":800,"x_min":132,"x_max":694,"o":"m 694 -90 l 638 -25 q 594 -14 629 -14 l 594 -14 l 306 -14 l 210 -54 l 208 728 q 199 772 208 764 q 150 782 189 779 l 150 782 l 132 828 l 401 828 l 381 782 q 334 770 346 779 q 322 728 322 761 l 322 728 l 322 100 l 594 100 q 639 110 631 100 l 639 110 l 694 179 l 694 -90 z "},"M":{"ha":1250,"x_min":131,"x_max":1118,"o":"m 1118 -17 l 849 -17 l 869 29 q 916 41 904 32 q 928 83 928 50 l 928 83 l 928 711 l 683 711 l 683 83 q 693 40 683 49 q 740 29 703 32 l 740 29 l 761 -17 l 492 -17 l 510 29 q 558 38 549 29 q 568 83 568 46 l 568 83 l 568 711 l 324 711 l 324 83 q 333 40 324 47 q 382 29 343 32 l 382 29 l 403 -17 l 131 -17 l 151 29 q 198 41 186 32 q 210 83 210 50 l 210 83 l 210 728 q 200 772 210 764 q 151 782 190 779 l 151 782 l 131 829 l 232 825 l 567 825 q 510 856 564 850 l 510 856 l 492 900 l 761 900 l 740 854 q 690 844 700 851 l 690 844 q 685 825 686 840 l 685 825 l 1019 825 l 1118 829 l 1100 783 q 1054 772 1064 779 l 1054 772 q 1042 728 1042 761 l 1042 728 l 1042 83 q 1051 40 1042 47 q 1100 29 1061 32 l 1100 29 l 1118 -17 z "},"N":{"ha":1086,"x_min":132,"x_max":957,"o":"m 957 -17 l 688 -17 l 706 29 q 752 41 742 32 q 764 86 763 50 l 764 86 l 322 557 l 322 83 q 332 40 322 47 q 381 29 342 32 l 381 29 l 401 -17 l 132 -17 l 150 28 q 197 41 186 32 q 208 83 208 50 l 208 83 l 208 728 q 199 772 208 764 q 150 782 189 779 l 150 782 l 132 828 l 401 828 l 381 782 q 333 769 343 779 q 322 722 324 760 l 322 722 l 764 254 l 764 728 q 754 772 764 764 q 706 782 744 779 l 706 782 l 688 828 l 957 828 l 936 782 q 890 770 901 779 q 878 728 878 761 l 878 728 l 878 83 q 888 40 878 47 q 936 29 897 32 l 936 29 l 957 -17 z "},"O":{"ha":1164,"x_min":142,"x_max":1022,"o":"m 582 -35 l 582 -35 q 268 92 394 -35 q 142 406 142 218 l 142 406 q 269 719 142 592 q 582 846 396 846 l 582 846 q 896 719 769 846 q 1022 406 1022 593 l 1022 406 q 896 92 1022 218 q 582 -35 769 -35 z m 633 729 l 633 729 l 633 457 l 906 457 q 813 637 888 561 q 633 729 738 713 z m 531 457 l 531 729 q 351 636 426 711 q 258 457 275 561 l 258 457 l 531 457 z m 906 354 l 633 354 l 633 82 q 813 174 739 100 q 906 354 888 249 l 906 354 z m 531 82 l 531 354 l 258 354 q 351 175 276 250 q 531 82 426 100 l 531 82 z "},"P":{"ha":778,"x_min":132,"x_max":689,"o":"m 421 306 l 421 306 l 322 306 l 322 83 q 332 40 322 47 q 381 29 342 32 l 381 29 l 401 -17 l 132 -17 l 150 28 q 197 41 186 32 q 208 83 208 50 l 208 83 l 208 728 q 199 772 208 764 q 150 782 189 779 l 150 782 l 132 829 l 231 825 l 421 825 q 610 752 531 825 q 689 571 689 679 l 689 571 q 611 382 689 458 q 421 306 533 306 z m 415 721 l 415 721 l 322 721 l 322 411 l 415 411 q 527 456 483 411 q 571 569 571 501 l 571 569 q 527 679 571 638 q 415 721 483 721 z "},"Q":{"ha":1164,"x_min":142,"x_max":1022,"o":"m 639 -32 l 639 -32 l 639 -90 q 651 -135 639 -125 l 651 -135 q 697 -146 660 -142 l 697 -146 l 718 -190 l 449 -190 l 467 -146 q 515 -133 504 -142 q 525 -90 525 -125 l 525 -90 l 525 -32 q 249 113 357 -11 q 142 406 142 236 l 142 406 q 269 719 142 592 q 582 846 396 846 l 582 846 q 896 719 769 846 q 1022 406 1022 593 l 1022 406 q 915 112 1022 235 q 639 -32 807 -11 z m 582 733 l 582 733 q 349 639 443 733 q 256 406 256 544 l 256 406 q 331 193 256 283 q 525 83 406 103 l 525 83 l 525 351 q 513 396 525 386 l 513 396 q 467 404 506 401 l 467 404 l 450 451 l 717 451 l 697 404 q 651 394 660 401 l 651 394 q 639 351 639 386 l 639 351 l 639 83 q 834 193 758 103 q 910 406 910 283 l 910 406 q 816 640 910 546 q 582 733 722 733 z "},"R":{"ha":944,"x_min":132,"x_max":878,"o":"m 878 -18 l 686 -18 l 381 344 l 322 344 l 322 83 q 332 40 322 47 q 381 29 342 32 l 381 29 l 401 -17 l 132 -17 l 150 28 q 197 41 186 32 q 208 83 208 50 l 208 83 l 208 728 q 199 772 208 764 q 150 782 189 779 l 150 782 l 132 829 l 231 825 l 421 825 q 599 760 526 825 q 672 590 672 694 l 672 590 q 631 455 672 517 q 522 364 590 393 l 522 364 l 749 92 q 806 40 763 75 l 806 40 q 860 26 822 31 l 860 26 l 878 -18 z m 415 721 l 415 721 l 322 721 l 322 450 l 415 450 q 519 488 479 450 q 558 589 558 525 l 558 589 q 518 685 558 650 q 415 721 478 721 z "},"S":{"ha":806,"x_min":132,"x_max":667,"o":"m 389 -32 l 389 -32 q 222 24 293 -32 q 132 174 150 81 l 132 174 l 267 233 l 289 197 q 254 164 254 175 l 254 164 q 288 113 254 142 l 288 113 q 393 75 331 75 l 393 75 q 506 112 460 75 q 553 214 553 149 l 553 214 q 440 342 553 281 l 440 342 l 313 411 q 206 493 239 451 l 206 493 q 167 619 167 543 l 167 619 q 238 775 167 714 l 238 775 q 400 835 304 835 l 400 835 q 642 683 565 835 l 642 683 l 528 581 l 501 622 q 528 658 528 644 l 528 658 q 482 711 528 690 l 482 711 q 408 729 444 729 l 408 729 q 318 703 353 729 l 318 703 q 279 619 279 674 l 279 619 q 310 551 279 578 l 310 551 q 376 510 326 536 l 376 510 l 526 429 q 667 213 667 354 l 667 213 q 581 33 667 103 l 581 33 q 389 -32 501 -32 z "},"T":{"ha":1015,"x_min":86,"x_max":929,"o":"m 929 632 l 885 653 q 872 701 881 690 q 829 711 864 711 l 829 711 l 565 711 l 565 83 q 576 38 565 47 q 624 29 586 29 l 624 29 l 642 -17 l 372 -17 l 393 29 q 440 40 429 32 q 450 83 450 49 l 450 83 l 450 711 l 186 711 q 144 701 151 711 q 133 653 136 690 l 133 653 l 86 633 l 86 900 l 132 883 q 142 838 136 844 l 142 838 q 186 825 151 825 l 186 825 l 829 825 q 874 838 864 825 l 874 838 q 885 883 881 846 l 885 883 l 929 901 l 929 632 z "},"U":{"ha":1196,"x_min":82,"x_max":1118,"o":"m 1118 828 l 1097 782 q 1051 770 1063 779 q 1039 728 1039 761 l 1039 728 l 1039 406 q 913 92 1039 218 q 599 -35 786 -35 l 599 -35 q 285 92 411 -35 q 158 406 158 218 l 158 406 l 158 728 q 149 772 158 764 q 100 782 139 779 l 100 782 l 82 828 l 350 828 l 329 782 q 283 771 293 779 q 272 728 272 763 l 272 728 l 272 406 q 366 172 272 267 q 599 78 460 78 l 599 78 q 833 172 739 78 q 926 406 926 265 l 926 406 l 926 728 q 917 772 926 764 q 868 782 907 779 l 868 782 l 847 828 l 1118 828 z "},"V":{"ha":1107,"x_min":33,"x_max":1072,"o":"m 1072 828 l 1051 783 q 999 768 1013 779 q 965 721 985 757 l 965 721 l 553 -72 l 140 721 q 106 767 124 754 q 54 783 89 779 l 54 783 l 33 828 l 303 828 l 285 782 q 246 772 246 782 l 246 772 q 260 735 246 761 l 260 735 l 553 172 l 846 735 q 860 772 860 761 l 860 772 q 821 782 860 782 l 821 782 l 803 828 l 1072 828 z "},"W":{"ha":1444,"x_min":19,"x_max":1419,"o":"m 1419 828 l 1399 783 q 1346 768 1360 779 q 1313 721 1332 757 l 1313 721 l 899 -72 l 719 272 l 539 -72 l 126 721 q 93 768 108 757 q 40 782 78 779 l 40 782 l 19 828 l 292 828 l 271 783 q 232 771 232 779 l 232 771 q 247 735 232 764 l 247 735 l 539 172 l 656 396 l 533 628 q 501 674 514 664 l 501 674 q 447 689 485 686 l 447 689 l 431 735 l 699 735 l 678 689 q 640 678 643 686 l 640 678 q 654 640 640 667 l 654 640 l 719 515 l 788 642 q 801 678 801 668 l 801 678 q 763 690 801 686 l 763 690 l 743 735 l 1011 735 l 993 690 q 941 676 956 688 q 907 629 926 664 l 907 629 l 782 396 l 899 172 l 1193 735 q 1208 769 1208 764 l 1208 769 q 1168 783 1208 774 l 1168 783 l 1147 828 l 1419 828 z "},"X":{"ha":1167,"x_min":103,"x_max":1068,"o":"m 1068 114 l 879 -78 l 858 -31 q 886 13 886 0 l 886 13 q 861 49 886 24 l 861 49 l 586 324 l 310 49 q 285 11 285 24 l 285 11 q 313 -31 285 1 l 313 -31 l 292 -78 l 103 114 l 150 131 q 193 106 182 106 l 193 106 q 215 118 201 106 l 215 118 q 228 129 221 122 l 228 129 l 504 406 l 228 682 q 193 706 204 706 l 193 706 q 150 681 182 706 l 150 681 l 103 697 l 292 889 l 313 842 q 285 799 285 808 l 285 799 q 310 763 285 788 l 310 763 l 586 488 l 861 763 q 886 800 886 788 l 886 800 q 858 842 886 810 l 858 842 l 879 889 l 1068 697 l 1022 681 q 979 706 990 706 l 979 706 q 943 682 967 706 l 943 682 l 667 406 l 943 129 q 979 106 967 106 l 979 106 q 1022 131 990 106 l 1022 131 l 1068 114 z "},"Y":{"ha":1089,"x_min":57,"x_max":1022,"o":"m 1022 697 l 976 681 q 933 706 946 706 l 933 706 q 897 682 921 706 l 897 682 l 597 381 l 597 83 q 607 40 597 47 q 656 29 617 32 l 656 29 l 674 -17 l 404 -17 l 425 29 q 472 41 460 32 q 483 83 483 50 l 483 83 l 483 381 l 182 682 q 147 706 158 706 l 147 706 q 104 681 136 706 l 104 681 l 57 697 l 246 889 l 267 843 q 240 799 240 810 l 240 799 q 264 763 240 786 l 264 763 l 540 488 l 815 763 q 840 800 840 788 l 840 800 q 815 842 840 811 l 815 842 l 832 889 l 1022 697 z "},"Z":{"ha":931,"x_min":140,"x_max":803,"o":"m 800 -89 l 754 -72 q 742 -25 751 -36 q 699 -14 733 -14 l 699 -14 l 140 -14 l 594 711 l 247 711 q 205 701 213 711 q 194 653 197 690 l 194 653 l 147 633 l 147 900 l 193 883 q 203 838 197 844 l 203 838 q 247 825 213 825 l 247 825 l 803 825 l 350 100 l 699 100 q 742 110 735 100 q 753 158 750 119 l 753 158 l 800 178 l 800 -89 z "},"a":{"ha":729,"x_min":17,"x_max":713,"o":"m 713 11 l 529 -75 l 529 -29 q 557 -4 557 -14 l 557 -4 q 550 18 557 4 l 550 18 l 499 118 l 197 61 l 178 18 q 169 -7 169 0 l 169 -7 q 200 -29 171 -11 l 200 -29 l 196 -74 l 17 11 l 46 42 q 76 33 68 33 l 76 33 q 97 56 88 33 l 97 56 l 364 632 l 629 56 q 650 33 639 33 l 650 33 q 679 40 658 33 l 679 40 l 713 11 z m 476 186 l 364 436 l 233 143 l 476 186 z "},"b":{"ha":568,"x_min":85,"x_max":486,"o":"m 297 -14 l 297 -14 l 161 -14 l 85 -15 l 104 25 q 135 30 129 25 q 142 58 142 35 l 142 58 l 142 510 q 135 538 142 533 q 104 543 129 543 l 104 543 l 85 583 l 161 582 l 275 582 q 397 547 350 582 l 397 547 q 450 436 450 508 l 450 436 q 404 328 450 369 l 404 328 q 486 174 486 275 l 486 174 q 433 39 486 92 q 297 -14 379 -14 z m 290 501 l 290 501 l 231 501 l 231 356 l 290 356 q 342 376 322 356 q 361 429 361 397 l 361 429 q 290 501 361 501 z m 293 275 l 293 275 l 231 275 l 231 71 l 293 71 q 367 100 338 71 q 396 174 396 129 l 396 174 q 366 246 396 217 q 293 275 336 275 z "},"c":{"ha":672,"x_min":94,"x_max":639,"o":"m 590 422 l 549 422 q 407 507 538 507 l 407 507 q 249 441 315 507 q 183 283 183 375 l 183 283 q 249 126 183 192 q 407 60 315 60 l 407 60 q 551 150 532 60 l 551 150 l 588 150 l 636 51 q 526 -3 593 21 l 526 -3 q 407 -29 456 -29 l 407 -29 q 184 60 274 -29 q 94 283 94 150 l 94 283 q 184 506 94 417 q 407 596 274 596 l 407 596 q 528 565 451 596 l 528 565 q 639 507 594 538 l 639 507 l 590 422 z "},"d":{"ha":725,"x_min":104,"x_max":631,"o":"m 542 72 l 542 72 q 396 -7 476 8 l 396 -7 q 231 -14 360 -14 l 231 -14 l 161 -14 l 131 -18 l 104 25 q 135 30 129 25 q 142 58 142 35 l 142 58 l 142 510 q 135 538 142 533 q 104 543 129 543 l 104 543 l 146 581 l 161 582 l 219 582 q 390 576 357 582 l 390 576 q 540 499 474 563 l 540 499 q 631 286 631 413 l 631 286 q 542 72 631 160 z m 328 499 l 328 499 l 232 499 l 232 68 l 328 68 q 480 131 418 68 q 542 283 542 193 l 542 283 q 480 436 542 374 q 328 499 418 499 z "},"e":{"ha":643,"x_min":128,"x_max":508,"o":"m 508 -69 l 468 -51 q 463 -20 468 -26 q 433 -14 457 -14 l 433 -14 l 250 -14 l 176 -87 l 176 256 q 167 218 171 253 l 167 218 l 128 201 l 128 401 l 167 385 q 172 351 169 358 l 172 351 q 176 349 174 350 l 176 349 l 176 582 l 433 582 q 463 588 458 582 q 468 619 468 593 l 468 619 l 508 638 l 508 438 l 468 456 q 463 488 468 482 q 433 493 458 493 l 433 493 l 264 493 l 264 346 l 429 346 q 458 353 453 346 q 463 385 463 360 l 463 385 l 504 401 l 504 201 l 463 218 q 458 251 463 244 q 429 257 454 257 l 429 257 l 264 257 l 264 74 l 433 74 q 463 80 458 74 q 468 113 468 86 l 468 113 l 508 131 l 508 -69 z "},"f":{"ha":582,"x_min":128,"x_max":508,"o":"m 508 438 l 468 456 q 463 488 468 482 q 433 493 458 493 l 433 493 l 264 493 l 264 346 l 429 346 q 458 353 453 346 q 463 385 463 360 l 463 385 l 504 401 l 504 201 l 463 218 q 458 251 463 244 q 429 257 454 257 l 429 257 l 264 257 l 264 0 l 176 -87 l 176 256 q 167 218 171 253 l 167 218 l 128 201 l 128 401 l 167 385 q 172 351 169 358 l 172 351 q 176 349 174 350 l 176 349 l 176 582 l 433 582 q 463 588 458 582 q 468 619 468 593 l 468 619 l 508 638 l 508 438 z "},"g":{"ha":700,"x_min":94,"x_max":599,"o":"m 519 -7 l 519 -7 q 407 -29 465 -29 l 407 -29 q 184 60 274 -29 q 94 283 94 150 l 94 283 q 184 506 94 417 q 407 596 274 596 l 407 596 q 588 539 506 596 l 588 539 l 590 422 l 549 422 q 407 507 538 507 l 407 507 q 249 441 315 507 q 183 283 183 375 l 183 283 q 249 126 183 192 q 407 60 315 60 l 407 60 q 510 88 456 60 l 510 88 l 510 235 l 471 235 q 442 228 447 235 q 438 196 438 221 l 438 196 l 396 179 l 396 322 l 599 322 l 599 36 q 519 -7 572 21 z "},"h":{"ha":675,"x_min":86,"x_max":589,"o":"m 589 -15 l 389 -15 l 407 25 q 439 30 432 25 q 446 58 446 35 l 446 58 l 446 253 l 231 253 l 231 58 q 237 30 231 35 q 268 25 243 25 l 268 25 l 286 -15 l 86 -15 l 104 25 q 135 30 129 25 q 142 58 142 35 l 142 58 l 142 510 q 135 538 142 533 q 104 543 129 543 l 104 543 l 86 583 l 286 583 l 268 543 q 236 539 242 543 q 231 510 231 535 l 231 510 l 231 335 l 446 335 l 446 510 q 439 538 446 533 q 407 543 432 543 l 407 543 l 389 583 l 589 583 l 571 543 q 540 538 546 543 q 533 510 533 533 l 533 510 l 533 58 q 540 30 533 35 q 571 25 546 25 l 571 25 l 589 -15 z "},"i":{"ha":403,"x_min":100,"x_max":301,"o":"m 301 -15 l 100 -15 l 118 25 q 150 29 144 25 q 156 58 156 33 l 156 58 l 156 510 q 149 538 156 533 q 118 543 143 543 l 118 543 l 100 583 l 301 583 l 288 543 q 256 539 260 543 l 256 539 q 247 510 247 535 l 247 510 l 247 58 q 256 29 247 33 l 256 29 q 288 25 260 25 l 288 25 l 301 -15 z "},"j":{"ha":403,"x_min":101,"x_max":301,"o":"m 301 583 l 283 543 q 251 538 258 543 q 244 510 244 533 l 244 510 l 244 -150 l 157 -299 l 157 510 q 151 538 157 533 q 119 543 144 543 l 119 543 l 101 583 l 301 583 z "},"k":{"ha":629,"x_min":86,"x_max":600,"o":"m 600 -15 l 465 -17 l 231 218 l 231 58 q 237 30 231 35 q 268 25 243 25 l 268 25 l 286 -15 l 86 -15 l 104 25 q 135 30 129 25 q 142 58 142 35 l 142 58 l 142 510 q 135 538 142 533 q 104 543 129 543 l 104 543 l 86 583 l 286 583 l 268 543 q 236 539 242 543 q 231 510 231 535 l 231 510 l 231 407 l 351 517 q 369 539 367 531 l 369 539 q 353 568 369 543 l 353 568 l 369 610 l 503 460 l 458 450 q 431 469 436 469 l 431 469 q 408 456 424 469 l 408 456 l 256 318 l 506 68 q 583 24 544 29 l 583 24 l 600 -15 z "},"l":{"ha":560,"x_min":86,"x_max":490,"o":"m 490 -69 l 446 -21 q 417 -14 440 -14 l 417 -14 l 215 -14 l 140 -36 l 142 510 q 128 549 142 531 l 128 549 q 110 557 119 557 l 110 557 l 86 583 l 286 583 l 268 560 q 236 540 260 560 l 236 540 q 231 510 231 535 l 231 510 l 231 74 l 417 74 q 458 90 438 74 l 458 90 q 465 107 465 96 l 465 107 l 490 131 l 490 -69 z "},"m":{"ha":875,"x_min":85,"x_max":788,"o":"m 788 -15 l 589 -15 l 607 25 q 639 30 632 25 q 646 58 646 35 l 646 58 l 646 493 l 482 493 l 482 58 q 488 30 482 35 q 519 25 494 25 l 519 25 l 542 -15 l 338 -15 l 356 25 q 388 29 382 25 q 393 58 393 33 l 393 58 l 393 493 l 231 493 l 231 58 q 238 30 231 35 q 269 25 244 25 l 269 25 l 288 -15 l 86 -15 l 104 25 q 136 30 129 25 q 143 58 143 35 l 143 58 l 143 510 q 136 538 143 533 q 104 543 129 543 l 104 543 l 85 583 l 163 582 l 392 582 q 354 594 389 590 l 354 594 l 338 635 l 540 635 l 519 594 q 485 586 490 590 l 485 586 l 483 582 l 788 583 l 774 543 q 742 539 746 543 l 742 539 q 733 510 733 535 l 733 510 l 733 58 q 742 29 733 33 l 742 29 q 774 25 746 25 l 774 25 l 788 -15 z "},"n":{"ha":760,"x_min":86,"x_max":675,"o":"m 675 -15 l 475 -15 l 493 25 q 523 31 517 25 q 531 58 529 36 l 531 58 l 231 379 l 231 58 q 237 30 231 35 q 268 25 243 25 l 268 25 l 286 -15 l 86 -15 l 104 25 q 135 30 129 25 q 142 58 142 35 l 142 58 l 142 510 q 135 538 142 533 q 104 543 129 543 l 104 543 l 86 583 l 286 583 l 268 543 q 237 538 243 543 q 231 507 231 532 l 231 507 l 531 189 l 531 510 q 524 538 531 533 q 493 543 518 543 l 493 543 l 475 583 l 675 583 l 657 543 q 625 538 632 543 q 618 510 618 533 l 618 510 l 618 58 q 625 30 618 35 q 657 25 632 25 l 657 25 l 675 -15 z "},"o":{"ha":815,"x_min":94,"x_max":719,"o":"m 407 -29 l 407 -29 q 184 60 274 -29 q 94 283 94 150 l 94 283 q 184 506 94 417 q 407 596 274 596 l 407 596 q 630 506 540 596 q 719 283 719 417 l 719 283 q 630 60 719 150 q 407 -29 540 -29 z m 447 504 l 447 504 l 447 324 l 628 324 q 567 443 617 393 q 447 504 517 493 z m 628 244 l 447 244 l 447 63 q 566 126 517 76 q 628 244 615 175 l 628 244 z m 367 324 l 367 504 q 248 442 297 492 q 186 324 199 393 l 186 324 l 367 324 z m 367 63 l 367 244 l 186 244 q 249 126 200 175 q 367 63 297 76 l 367 63 z "},"p":{"ha":544,"x_min":85,"x_max":486,"o":"m 294 210 l 294 210 l 231 210 l 231 58 q 237 30 231 35 q 268 25 243 25 l 268 25 l 286 -15 l 86 -15 l 104 25 q 135 30 129 25 q 142 58 142 35 l 142 58 l 142 510 q 135 538 142 533 q 104 543 129 543 l 104 543 l 85 583 l 161 582 l 294 582 q 431 531 375 582 q 486 400 486 479 l 486 400 q 431 265 486 319 q 294 210 375 210 z m 290 500 l 290 500 l 231 500 l 231 292 l 290 292 q 367 322 338 292 q 396 399 396 351 l 396 399 q 366 472 396 444 q 290 500 336 500 z "},"q":{"ha":815,"x_min":94,"x_max":719,"o":"m 451 -26 l 451 -26 l 451 -62 q 460 -92 451 -86 l 460 -92 q 492 -99 463 -94 l 492 -99 l 508 -137 l 310 -137 l 324 -99 q 357 -91 350 -96 q 364 -62 364 -86 l 364 -62 l 364 -26 q 170 76 246 -11 q 94 283 94 164 l 94 283 q 184 506 94 417 q 407 596 274 596 l 407 596 q 630 506 540 596 q 719 283 719 417 l 719 283 q 643 78 719 167 q 451 -26 567 -11 z m 407 510 l 407 510 q 248 444 313 510 q 183 283 183 378 l 183 283 q 234 140 183 203 q 364 63 285 78 l 364 63 l 364 249 q 356 276 364 272 q 322 281 349 281 l 322 281 l 310 322 l 508 322 l 492 281 q 460 278 464 281 l 460 278 q 451 249 451 272 l 451 249 l 451 63 q 582 141 531 79 q 633 283 633 203 l 633 283 q 567 443 633 376 q 407 510 500 510 z "},"r":{"ha":661,"x_min":85,"x_max":611,"o":"m 611 -15 l 478 -17 l 264 236 l 231 236 l 231 58 q 237 30 231 35 q 268 25 243 25 l 268 25 l 286 -15 l 86 -15 l 104 25 q 135 30 129 25 q 142 58 142 35 l 142 58 l 142 510 q 135 538 142 533 q 104 543 129 543 l 104 543 l 85 583 l 161 582 l 294 582 q 423 535 371 582 q 475 413 475 488 l 475 413 q 374 253 475 300 l 374 253 l 518 68 q 553 38 532 50 l 553 38 q 597 24 569 28 l 597 24 l 611 -15 z m 290 500 l 290 500 l 231 500 l 231 319 l 290 319 q 359 345 332 319 q 386 413 386 371 l 386 413 q 290 500 386 500 z "},"s":{"ha":564,"x_min":88,"x_max":471,"o":"m 272 -26 l 272 -26 q 151 14 201 -26 q 88 124 101 54 l 88 124 l 189 167 l 208 138 q 182 115 182 121 l 182 115 q 217 72 182 90 l 217 72 q 275 57 247 57 l 275 57 q 352 81 321 57 q 383 150 383 106 l 383 150 q 306 235 383 192 l 306 235 q 218 285 238 272 l 218 285 q 140 343 158 321 l 140 343 q 113 433 113 378 l 113 433 q 161 546 113 503 q 281 589 210 589 l 281 589 q 454 478 399 589 l 454 478 l 367 399 l 347 436 q 365 461 364 458 l 365 461 q 336 493 365 479 q 286 507 307 507 l 286 507 q 200 433 200 507 l 200 433 q 265 361 200 396 l 265 361 l 371 304 q 471 149 471 250 l 471 149 q 410 19 471 69 l 410 19 q 272 -26 354 -26 z "},"t":{"ha":711,"x_min":56,"x_max":654,"o":"m 654 438 l 615 454 q 608 485 611 482 l 608 485 q 581 493 603 493 l 581 493 l 400 493 l 400 58 q 406 30 400 35 q 438 25 413 25 l 438 25 l 456 -15 l 256 -15 l 274 25 q 306 29 300 25 q 311 58 311 33 l 311 58 l 311 493 l 131 493 q 102 486 107 493 q 97 454 97 479 l 97 454 l 56 438 l 56 638 l 97 621 q 102 589 97 596 q 131 582 107 582 l 131 582 l 581 582 q 608 590 604 582 l 608 590 q 615 621 611 593 l 615 621 l 654 638 l 654 438 z "},"u":{"ha":838,"x_min":53,"x_max":788,"o":"m 788 583 l 769 543 q 738 538 744 543 q 731 510 731 533 l 731 510 l 731 283 q 642 60 731 150 q 419 -29 553 -29 l 419 -29 q 197 60 286 -29 q 107 283 107 150 l 107 283 l 107 510 q 101 539 107 535 q 67 543 94 543 l 67 543 l 53 583 l 250 583 l 232 543 q 200 539 206 543 q 194 510 194 535 l 194 510 l 194 283 q 260 124 194 190 q 419 58 326 58 l 419 58 q 578 124 513 58 q 644 283 644 190 l 644 283 l 644 510 q 638 538 644 533 q 606 543 631 543 l 606 543 l 588 583 l 788 583 z "},"v":{"ha":775,"x_min":18,"x_max":756,"o":"m 756 583 l 738 543 q 702 535 713 543 q 679 503 692 528 l 679 503 l 388 -60 l 94 503 q 72 535 82 526 q 36 543 63 543 l 36 543 l 18 583 l 217 583 l 203 543 q 176 540 178 543 l 176 540 q 186 517 176 535 l 186 517 l 388 129 l 589 517 q 597 540 597 533 l 597 540 q 574 543 594 543 l 574 543 l 556 583 l 756 583 z "},"w":{"ha":1011,"x_min":8,"x_max":999,"o":"m 999 583 l 981 543 q 945 535 956 543 q 922 503 935 528 l 922 503 l 629 -60 l 504 181 l 378 -60 l 85 503 q 63 535 72 526 q 26 543 53 543 l 26 543 l 8 583 l 210 583 l 192 543 q 167 540 168 543 l 167 540 q 176 517 167 535 l 176 517 l 378 129 l 454 278 l 372 440 q 349 474 358 467 q 313 481 340 481 l 313 481 l 299 521 l 499 521 l 481 481 q 456 478 457 481 l 456 478 q 465 453 456 474 l 465 453 l 504 371 l 550 460 q 560 483 560 479 l 560 483 q 533 486 556 486 l 533 486 l 515 526 l 715 526 l 701 486 q 665 479 674 486 q 642 446 656 472 l 642 446 l 551 278 l 629 129 l 832 517 q 842 540 842 535 l 842 540 q 817 543 838 543 l 817 543 l 794 583 l 999 583 z "},"x":{"ha":817,"x_min":63,"x_max":757,"o":"m 757 83 l 613 -62 l 596 -21 q 615 8 615 1 l 615 8 q 600 31 615 15 l 600 31 l 410 221 l 219 31 q 204 8 204 15 l 204 8 q 224 -21 204 1 l 224 -21 l 207 -62 l 63 83 l 106 96 q 135 78 129 78 l 135 78 q 157 93 142 78 l 157 93 l 347 283 l 157 475 q 135 490 142 490 l 135 490 q 106 472 132 490 l 106 472 l 63 485 l 206 628 l 224 590 q 204 560 204 565 l 204 560 q 219 536 206 550 l 219 536 l 410 347 l 600 536 q 615 560 615 551 l 615 560 q 596 589 615 567 l 596 589 l 614 628 l 757 485 l 714 472 q 685 490 690 490 l 685 490 q 663 475 681 489 l 663 475 l 472 283 l 663 93 q 685 78 678 78 l 685 78 q 714 96 692 78 l 714 96 l 757 83 z "},"y":{"ha":763,"x_min":31,"x_max":722,"o":"m 722 486 l 683 472 q 654 490 660 490 l 654 490 q 631 475 646 490 l 631 475 l 422 264 l 422 58 q 428 30 422 35 q 460 25 435 25 l 460 25 l 478 -15 l 278 -15 l 296 25 q 328 30 321 25 q 335 58 335 35 l 335 58 l 335 264 l 125 475 q 103 490 110 490 l 103 490 q 74 472 100 490 l 74 472 l 31 485 l 174 628 l 192 590 q 172 558 172 565 l 172 558 q 188 536 172 551 l 188 536 l 378 347 l 568 536 q 583 561 583 551 l 583 561 q 567 589 583 568 l 567 589 l 581 631 l 722 486 z "},"z":{"ha":651,"x_min":90,"x_max":569,"o":"m 564 -69 l 522 -53 q 517 -21 522 -28 q 489 -14 513 -14 l 489 -14 l 90 -14 l 408 493 l 174 493 q 145 486 150 493 q 140 454 140 479 l 140 454 l 99 438 l 99 638 l 140 621 q 145 589 140 596 q 174 582 150 582 l 174 582 l 569 582 l 253 74 l 489 74 q 518 82 514 74 l 518 82 q 522 114 522 86 l 522 114 l 564 131 l 564 -69 z "}}}
